<?xml version="1.0" encoding="utf-8"?>
<!-- Generator: Adobe Illustrator 25.2.3, SVG Export Plug-In . SVG Version: 6.00 Build 0)  -->
<svg version="1.1" id="Layer_1" xmlns="http://www.w3.org/2000/svg" xmlns:xlink="http://www.w3.org/1999/xlink" x="0px" y="0px"
	 viewBox="0 0 24 24" style="enable-background:new 0 0 24 24;" xml:space="preserve">
<style type="text/css">
	.st0{fill:url(#SVGID_1_);stroke:#5D6AA4;stroke-width:9.3191;}
	.st1{fill:url(#SVGID_2_);}
	.st2{opacity:0.46;}
	.st3{fill:#FFFFFF;}
	.st4{display:none;}
	.st5{display:inline;}
	.st6{fill:url(#SVGID_5_);}
	.st7{fill:#82C341;}
</style>
<symbol  id="New_Symbol" viewBox="-107.4 -107.4 214.8 214.8">
	<g>
		
			<linearGradient id="SVGID_1_" gradientUnits="userSpaceOnUse" x1="-166.371" y1="-23.2364" x2="-48.4747" y2="-191.6096" gradientTransform="matrix(1 0 0 1 107.423 107.423)">
			<stop  offset="0" style="stop-color:#283274"/>
			<stop  offset="0.7088" style="stop-color:#293275"/>
			<stop  offset="0.967" style="stop-color:#273F87"/>
		</linearGradient>
		<path class="st0" d="M102.8,0c0-56.8-46-102.8-102.8-102.8c-56.8,0-102.8,46-102.8,102.8S-56.8,102.8,0,102.8
			C56.8,102.8,102.8,56.8,102.8,0z"/>
		
			<linearGradient id="SVGID_2_" gradientUnits="userSpaceOnUse" x1="-182.4417" y1="5.3801" x2="-123.2761" y2="-79.1171" gradientTransform="matrix(1 0 0 1 125.9176 75.4718)">
			<stop  offset="0" style="stop-color:#BEC7E5"/>
			<stop  offset="9.560000e-02" style="stop-color:#B5BEDE"/>
			<stop  offset="0.2524" style="stop-color:#9CA5CC"/>
			<stop  offset="0.4508" style="stop-color:#747DAE"/>
			<stop  offset="0.6809" style="stop-color:#3D4684"/>
			<stop  offset="0.7582" style="stop-color:#293275"/>
		</linearGradient>
		<path class="st1" d="M0.3,98.5c26-0.2,54-10.6,74.2-34.7C73.6,43.2,36.7,22.1,5.9-1.2C-20-20.8-59.5-39.1-86.6-46.3
			c-25.7,49.3-7,96.6,25.3,123.2C-46.3,90.2-23.5,98.7,0.3,98.5z"/>
	</g>
	<g>
		<g>
			<path d="M55.6-25.6c0-8.7-3.1-16.1-9.2-22.2c-6.1-6.1-13.5-9.2-22.2-9.2h-37.4c-8.7,0-16.1,3.1-22.2,9.2
				c-6.1,6.1-9.2,13.5-9.2,22.2v93.8c6.7,0,12.3-3.3,17-9.8c4.7-6.5,7.1-14.3,7.1-23.5v-60.5c0-4.8,2.4-7.2,7.2-7.2h37.4
				c4.8,0,7.2,2.4,7.2,7.2V3.1c0,4.7-2.4,7.1-7.2,7.2H17c-9.3,0.3-17.2,2.8-23.6,7.3c-6.4,4.5-9.6,10.1-9.6,16.8h40.5
				c8.7,0,16.1-3.1,22.2-9.2c6.1-6.1,9.2-13.5,9.2-22.2L55.6-25.6L55.6-25.6z"/>
		</g>
	</g>
	<g class="st2">
		<g>
			<path class="st3" d="M55.6-25.6c0-8.7-3.1-16.1-9.2-22.2c-6.1-6.1-13.5-9.2-22.2-9.2h-37.4c-8.7,0-16.1,3.1-22.2,9.2
				c-6.1,6.1-9.2,13.5-9.2,22.2v93.8c6.7,0,12.3-3.3,17-9.8c4.7-6.5,7.1-14.3,7.1-23.5v-60.5c0-4.8,2.4-7.2,7.2-7.2h37.4
				c4.8,0,7.2,2.4,7.2,7.2V3.1c0,4.7-2.4,7.1-7.2,7.2H17c-9.3,0.3-17.2,2.8-23.6,7.3c-6.4,4.5-9.6,10.1-9.6,16.8h40.5
				c8.7,0,16.1-3.1,22.2-9.2c6.1-6.1,9.2-13.5,9.2-22.2L55.6-25.6L55.6-25.6z"/>
		</g>
	</g>
	<g>
		<path class="st3" d="M53.8-26.8c0-8.7-3.1-16.1-9.2-22.2c-6.1-6.1-13.5-9.2-22.2-9.2h-37.4c-8.7,0-16.1,3.1-22.2,9.2
			c-6.1,6.1-9.2,13.5-9.2,22.2V67c6.7,0,12.3-3.3,17-9.8c4.7-6.5,7.1-14.3,7.1-23.5v-60.5c0-4.8,2.4-7.2,7.2-7.2h37.4
			c4.8,0,7.2,2.4,7.2,7.2V1.9c0,4.7-2.4,7.1-7.2,7.2h-7.2C5.9,9.5-1.9,11.9-8.4,16.4C-14.8,21-18,26.6-18,33.2h40.5
			c8.7,0,16.1-3.1,22.2-9.2c6.1-6.1,9.2-13.5,9.2-22.2V-26.8z"/>
	</g>
</symbol>
<g class="st4">
	<defs>
		<rect id="SVGID_3_" x="0.2" y="0.2" width="23.7" height="23.7"/>
	</defs>
	<clipPath id="SVGID_4_" class="st5">
		<use xlink:href="#SVGID_3_"  style="overflow:visible;"/>
	</clipPath>
	<g style="display:inline;clip-path:url(#SVGID_4_);">
		
			<use xlink:href="#New_Symbol"  width="214.8" height="214.8" x="-107.4" y="-107.4" transform="matrix(0.1101 0 0 -0.1101 11.4594 12)" style="overflow:visible;"/>
	</g>
</g>
<g>
	<g>
		<linearGradient id="SVGID_5_" gradientUnits="userSpaceOnUse" x1="1.2" y1="12" x2="22.9264" y2="12">
			<stop  offset="0" style="stop-color:#2E63AD"/>
			<stop  offset="1" style="stop-color:#6F3393"/>
		</linearGradient>
		<path class="st6" d="M20.2,11.8c0.7,0,1.5,0.4,2.2,1l0.5-0.5c0-0.1,0-0.2,0-0.3c0-6-4.9-10.9-10.9-10.9S1.2,6,1.2,12
			s4.9,10.9,10.9,10.9c3.2,0,6-1.4,8-3.5c-1.4,0-2.7-0.6-3.9-1.7l-0.1-0.1c-1.1,0.8-2.5,1.3-4,1.3c-3.8,0-6.8-3.1-6.8-6.8
			s3.1-6.8,6.8-6.8s6.8,3.1,6.8,6.8c0,1-0.2,2-0.6,2.8c1.3,0.6,2.9,0.7,2.9,1.4c0,0.1,0,0.2,0,0.3c0-0.3-0.7-0.6-1.4-0.8
			c-0.5-0.2-1-0.3-1.5-0.6c-0.4,0.9-1.1,1.6-1.8,2.2c0,0,0,0,0,0c1,0.9,2.3,1.6,3.9,1.6c0,0,0.1,0,0.1,0c1.4-1.7,2.4-3.9,2.5-6.3
			l-0.5,0.5l-0.1-0.1c-0.7-0.6-1.4-1-2.1-1c-0.4,0-0.7,0.2-0.7,0.4c0,0.1,0.1,0.2,0.2,0.4c-0.2-0.1-0.4-0.3-0.4-0.5
			C19.4,12,19.7,11.8,20.2,11.8z"/>
	</g>
	<path class="st7" d="M19.4,12.4c0-0.3,0.3-0.6,0.9-0.6c0.7,0,1.5,0.4,2.2,1l1.4-1.4c-0.8-0.9-2-1.7-3.6-1.7c-2.1,0-3.5,1.3-3.5,2.9
		c0,3,4.4,2.5,4.4,3.7c0,0.4-0.2,0.7-0.9,0.7c-0.7,0-1.7-0.4-2.5-1.1c-0.4,0.6-0.9,1.1-1.4,1.6c1,0.9,2.3,1.6,3.9,1.6
		c2.1,0,3.6-1.3,3.6-3C23.8,13.2,19.4,13.5,19.4,12.4z"/>
</g>
</svg>
