<?xml version="1.0" encoding="utf-8"?>
<!-- Generator: Adobe Illustrator 25.2.3, SVG Export Plug-In . SVG Version: 6.00 Build 0)  -->
<svg version="1.1" id="Layer_1" xmlns="http://www.w3.org/2000/svg" xmlns:xlink="http://www.w3.org/1999/xlink" x="0px" y="0px"
	 viewBox="0 0 311.8 155.9" style="enable-background:new 0 0 311.8 155.9;" xml:space="preserve">
<style type="text/css">
	.st0{clip-path:url(#SVGID_2_);}
	.st1{clip-path:url(#SVGID_4_);fill:url(#SVGID_5_);}
	.st2{clip-path:url(#SVGID_7_);fill:#8ABD24;}
	.st3{clip-path:url(#SVGID_7_);fill:#333333;}
</style>
<g id="Vector_Smart_Object_1_">
	<g>
		<defs>
			<rect id="SVGID_1_" x="24.8" y="17" width="262.2" height="121.9"/>
		</defs>
		<clipPath id="SVGID_2_">
			<use xlink:href="#SVGID_1_"  style="overflow:visible;"/>
		</clipPath>
		<g class="st0">
			<defs>
				<path id="SVGID_3_" d="M24.8,78c0,33.7,27.3,61,61,61c17.9,0,33.9-7.7,45.1-19.9c-8.1-0.2-15.2-3.2-21.8-9.3l-0.7-0.6
					c-6.3,4.6-14.1,7.3-22.5,7.3c-21.2,0-38.4-17.2-38.4-38.4c0-21.2,17.2-38.4,38.4-38.4c21.2,0,38.4,17.2,38.4,38.4
					c0,5.7-1.2,11-3.4,15.8c7.1,3.6,16.2,4.1,16.2,8.1c0,0.5-0.1,1-0.3,1.5c0-1.8-4.1-3.5-8.1-4.7c-2.7-0.8-5.8-1.8-8.6-3.3
					c-2.5,4.9-6,9.2-10.2,12.6c-0.1,0-0.1,0.1-0.2,0.1c5.8,5.3,12.8,9.1,22,9.1c0.3,0,0.5,0,0.8,0c8.1-9.7,13.3-21.8,14.1-35.2
					l-2.8,2.8l-0.7-0.6c-3.8-3.5-8-5.6-11.5-5.6c-2.4,0-3.9,0.9-3.9,2.4c0,0.7,0.5,1.3,1.2,2c-1.3-0.8-2.2-1.7-2.2-2.9
					c0-1.9,1.7-3.3,4.8-3.3c4,0,8.4,2.2,12.2,5.8l2.9-2.9c0-0.5,0-1.1,0-1.6c0-33.7-27.3-61-61-61C52.1,17,24.8,44.3,24.8,78"/>
			</defs>
			<clipPath id="SVGID_4_">
				<use xlink:href="#SVGID_3_"  style="overflow:visible;"/>
			</clipPath>
			
				<linearGradient id="SVGID_5_" gradientUnits="userSpaceOnUse" x1="5.706052e-02" y1="155.585" x2="0.3377" y2="155.585" gradientTransform="matrix(434.3998 0 0 -434.3998 0 67664.0313)">
				<stop  offset="0" style="stop-color:#325DA7"/>
				<stop  offset="1" style="stop-color:#6C368C"/>
			</linearGradient>
			<rect x="24.8" y="17" class="st1" width="121.9" height="121.9"/>
		</g>
		<g class="st0">
			<defs>
				<rect id="SVGID_6_" x="24.8" y="17" width="262.2" height="121.9"/>
			</defs>
			<clipPath id="SVGID_7_">
				<use xlink:href="#SVGID_6_"  style="overflow:visible;"/>
			</clipPath>
			<path class="st2" d="M126.7,80c0-1.9,1.7-3.3,4.8-3.3c4,0,8.4,2.2,12.2,5.8l8.1-8c-4.7-5.3-11.3-9.3-20.1-9.3
				c-11.9,0-19.4,7.5-19.4,16.1c0,16.9,24.6,14.1,24.6,20.6c0,2.1-1.2,3.7-5,3.7c-4.2,0-9.8-2.4-14.3-6.3c-2.2,3.3-4.9,6.3-8.1,8.7
				c5.8,5.3,12.8,9.1,22,9.1c11.5,0,20.1-7.3,20.1-16.6C151.7,84.4,126.7,86.6,126.7,80"/>
			<path class="st3" d="M200.9,95.8h-4.1l-4.2-11.3c-0.5-1.4-1.2-2.3-2.1-2.8c-0.9-0.5-2.2-0.7-3.8-0.7h-8.5v14.8h-3.9V62h13.5
				c3.6,0,6.4,0.8,8.4,2.4c1.9,1.6,2.9,3.9,2.9,7c0,2.2-0.6,4.1-1.7,5.6c-1.2,1.5-2.8,2.6-5,3.2c1,0.2,1.8,0.6,2.5,1.3
				c0.7,0.7,1.3,1.7,1.8,2.9L200.9,95.8z M187.4,77.8c5.2,0,7.8-2.1,7.8-6.4c0-2.1-0.6-3.7-1.9-4.7c-1.3-1-3.2-1.5-5.9-1.5h-9.3
				v12.6H187.4z"/>
			<path class="st3" d="M226.8,83.8h-17.5c0,3,0.7,5.3,2.1,6.9c1.4,1.6,3.4,2.3,6,2.3c2.8,0,5.4-0.9,7.7-2.8l1.3,2.8
				c-1,1-2.4,1.8-4,2.3c-1.6,0.6-3.3,0.9-5,0.9c-3.7,0-6.7-1.1-8.8-3.3c-2.1-2.2-3.2-5.2-3.2-9.1c0-2.4,0.5-4.6,1.4-6.5
				c1-1.9,2.3-3.4,4-4.4c1.7-1,3.7-1.6,5.8-1.6c3.2,0,5.7,1,7.5,3.1c1.8,2.1,2.7,4.9,2.7,8.6V83.8z M211.8,76.2
				c-1.3,1.2-2.1,2.9-2.4,5.1h13.9c-0.2-2.3-0.8-4-2-5.1c-1.1-1.2-2.7-1.8-4.7-1.8C214.7,74.3,213,75,211.8,76.2"/>
			<polygon class="st3" points="249.5,72 253.4,72 243,95.8 239.4,95.8 229.2,72 233.2,72 241.3,91.7 			"/>
			<path class="st3" d="M277.3,83.8h-17.5c0,3,0.7,5.3,2.1,6.9c1.4,1.6,3.4,2.3,6,2.3c2.8,0,5.4-0.9,7.7-2.8l1.3,2.8
				c-1,1-2.4,1.8-4,2.3c-1.6,0.6-3.3,0.9-5,0.9c-3.7,0-6.7-1.1-8.8-3.3c-2.1-2.2-3.2-5.2-3.2-9.1c0-2.4,0.5-4.6,1.4-6.5
				c1-1.9,2.3-3.4,4-4.4c1.7-1,3.7-1.6,5.8-1.6c3.2,0,5.7,1,7.5,3.1c1.8,2.1,2.7,4.9,2.7,8.6V83.8z M262.3,76.2
				c-1.3,1.2-2.1,2.9-2.4,5.1h13.9c-0.2-2.3-0.8-4-2-5.1c-1.1-1.2-2.7-1.8-4.7-1.8C265.2,74.3,263.6,75,262.3,76.2"/>
			<rect x="283.2" y="60.8" class="st3" width="3.9" height="35"/>
		</g>
	</g>
</g>
</svg>
